<svg xmlns="http://www.w3.org/2000/svg" viewBox="0 0 200 200">
  <!-- Red ring -->
  <circle cx="100" cy="100" r="98" fill="#E41E20"/>
  <circle cx="100" cy="100" r="80" fill="white"/>

  <!-- Wavy lines (water) — beige/taupe -->
  <g fill="none" stroke="#A89880" stroke-width="3.2" stroke-linecap="round">
    <path d="M38 148 Q55 140 72 148 Q89 156 106 148 Q123 140 140 148 Q157 156 162 150"/>
    <path d="M36 156 Q55 148 72 156 Q89 164 106 156 Q123 148 140 156 Q157 164 162 158"/>
    <path d="M38 164 Q55 156 72 164 Q89 172 106 164 Q123 156 140 164 Q157 172 162 166"/>
    <path d="M42 172 Q58 164 74 172 Q90 180 106 172 Q122 164 138 172 Q154 180 160 174"/>
  </g>

  <!-- Left leaf -->
  <path d="
    M100 138
    C100 138 90 120 78 105
    C68 93 60 78 65 62
    C68 52 78 46 88 50
    C95 53 100 62 100 75
    Z
  " fill="#1D9346"/>
  <!-- Left leaf white vein -->
  <path d="M100 138 C96 120 88 100 82 78 C79 68 78 58 80 52" fill="none" stroke="white" stroke-width="4" stroke-linecap="round"/>

  <!-- Right leaf -->
  <path d="
    M100 138
    C100 138 110 120 122 105
    C132 93 140 78 135 62
    C132 52 122 46 112 50
    C105 53 100 62 100 75
    Z
  " fill="#1D9346"/>
  <!-- Right leaf white vein -->
  <path d="M100 138 C104 120 112 100 118 78 C121 68 122 58 120 52" fill="none" stroke="white" stroke-width="4" stroke-linecap="round"/>

  <!-- Center stem -->
  <path d="M100 75 L100 138" stroke="#1D9346" stroke-width="6" stroke-linecap="round"/>
  <!-- Center stem highlight -->
  <path d="M100 80 L100 136" stroke="white" stroke-width="2.5" stroke-linecap="round"/>
</svg>
